<svg width="44" height="44" viewBox="0 0 44 44" fill="none" xmlns="http://www.w3.org/2000/svg">
<path d="M9.97328 15.657C11.2053 15.657 12.3004 15.921 13.2586 16.449C14.2364 16.977 14.9991 17.7592 15.5466 18.7956C16.1137 19.8321 16.3973 21.0836 16.3973 22.5503V32.0836H13.0826V23.049C13.0826 21.6018 12.7208 20.497 11.9973 19.7343C11.2737 18.9521 10.2862 18.561 9.03462 18.561C7.78306 18.561 6.78573 18.9521 6.04262 19.7343C5.31906 20.497 4.95728 21.6018 4.95728 23.049V32.0836H1.61328V10.377H4.95728V17.7983C5.52439 17.1138 6.23817 16.5858 7.09862 16.2143C7.97862 15.8427 8.93684 15.657 9.97328 15.657Z" fill="#43403B"/>
<path d="M29.0228 15.657C30.2548 15.657 31.3499 15.921 32.3081 16.449C33.2859 16.977 34.0485 17.7592 34.5961 18.7956C35.1632 19.8321 35.4468 21.0836 35.4468 22.5503V32.0836H32.1321V23.049C32.1321 21.6018 31.7703 20.497 31.0468 19.7343C30.3232 18.9521 29.3357 18.561 28.0841 18.561C26.8325 18.561 25.8352 18.9521 25.0921 19.7343C24.3685 20.497 24.0068 21.6018 24.0068 23.049V32.0836H20.6628V10.377H24.0068V17.7983C24.5739 17.1138 25.2877 16.5858 26.1481 16.2143C27.0281 15.8427 27.9863 15.657 29.0228 15.657Z" fill="#43403B"/>
<path d="M41.0616 32.289C40.4554 32.289 39.9469 32.0836 39.5362 31.673C39.1256 31.2623 38.9202 30.7538 38.9202 30.1476C38.9202 29.5414 39.1256 29.033 39.5362 28.6223C39.9469 28.2116 40.4554 28.0063 41.0616 28.0063C41.6482 28.0063 42.1469 28.2116 42.5576 28.6223C42.9682 29.033 43.1736 29.5414 43.1736 30.1476C43.1736 30.7538 42.9682 31.2623 42.5576 31.673C42.1469 32.0836 41.6482 32.289 41.0616 32.289Z" fill="#12B379"/>
</svg>
